<svg width="48" height="48" viewBox="0 0 48 48" fill="none" xmlns="http://www.w3.org/2000/svg">
<g clip-path="url(#clip0_1074_1650)">
<path d="M47.2822 29.8091C44.0764 42.6678 31.0527 50.4933 18.1924 47.2868C5.33757 44.0811 -2.48799 31.0564 0.719151 18.1988C3.92348 5.33866 16.9473 -2.48749 29.8035 0.718243C42.6628 3.92398 50.4879 16.95 47.2818 29.8093L47.2821 29.8091H47.2822Z" fill="#2775CA"/>
<path d="M30.4134 27.5227C30.4134 24.0224 28.3132 22.8223 24.1127 22.3223C21.1123 21.9222 20.5123 21.1222 20.5123 19.7218C20.5123 18.3215 21.5125 17.4217 23.5126 17.4217C25.3128 17.4217 26.313 18.0217 26.813 19.5219C26.9131 19.8219 27.2131 20.0219 27.5131 20.0219H29.1132C29.5133 20.0219 29.8133 19.7218 29.8133 19.322V19.2219C29.4132 17.0215 27.613 15.3214 25.3128 15.1215V12.7212C25.3128 12.3211 25.0128 12.0211 24.5128 11.921H23.0126C22.6125 11.921 22.3125 12.221 22.2124 12.7212V15.0214C19.2121 15.4215 17.312 17.4217 17.312 19.922C17.312 23.2224 19.3121 24.5224 23.5126 25.0226C26.313 25.5226 27.2131 26.1226 27.2131 27.7229C27.2131 29.3232 25.8128 30.4232 23.9127 30.4232C21.3123 30.4232 20.4122 29.3229 20.1122 27.8227C20.0123 27.4229 19.7123 27.2227 19.4122 27.2227H17.7119C17.312 27.2227 17.012 27.5227 17.012 27.9228V28.0229C17.4118 30.5231 19.0121 32.3233 22.3125 32.8235V35.2237C22.3125 35.6236 22.6125 35.9237 23.1125 36.0238H24.6127C25.0128 36.0238 25.3128 35.7237 25.4129 35.2237V32.8235C28.4132 32.3233 30.4134 30.223 30.4134 27.5227Z" fill="white"/>
<path d="M18.7119 38.0239C10.9111 35.2237 6.91053 26.5227 9.81102 18.8217C11.3112 14.6212 14.6116 11.421 18.7119 9.9208C19.1121 9.72086 19.312 9.42082 19.312 8.92061V7.52053C19.312 7.1204 19.1121 6.82037 18.7119 6.72052C18.6118 6.72052 18.4119 6.72052 18.3118 6.82037C8.81083 9.82071 3.61016 19.922 6.6105 29.423C8.4107 35.0235 12.7113 39.3241 18.3118 41.1243C18.7119 41.3242 19.1121 41.1243 19.2119 40.7242C19.312 40.6243 19.312 40.5242 19.312 40.3243V38.924C19.312 38.6239 19.012 38.2241 18.7119 38.0239ZM29.3132 6.82037C28.9131 6.62043 28.513 6.82037 28.4131 7.2205C28.313 7.32059 28.313 7.42044 28.313 7.62062V9.0207C28.313 9.42082 28.6131 9.82071 28.9131 10.0209C36.714 12.821 40.7145 21.522 37.814 29.223C36.3138 33.4235 33.0135 36.6238 28.9131 38.124C28.513 38.3239 28.313 38.6239 28.313 39.1242V40.5242C28.313 40.9244 28.513 41.2244 28.9131 41.3242C29.0132 41.3242 29.2131 41.3242 29.3132 41.2244C38.8142 38.2241 44.0149 28.1228 41.0145 18.6218C39.2143 12.9211 34.8137 8.62057 29.3132 6.82037Z" fill="white"/>
</g>
<defs>
<clipPath id="clip0_1074_1650">
<rect width="48" height="48.0054" fill="white"/>
</clipPath>
</defs>
</svg>
